<svg xmlns="http://www.w3.org/2000/svg" viewBox="0 0 381.39 381.39" width="512" height="512"><path d="M79.456 63.565V15.891C79.456 7.119 72.337 0 63.565 0S47.674 7.119 47.674 15.891v47.674c-17.544 0-31.782 14.239-31.782 31.782v31.782c0 17.544 14.239 31.782 31.782 31.782v206.586c0 8.74 7.119 15.891 15.891 15.891s15.891-7.151 15.891-15.891V158.912c17.544 0 31.782-14.239 31.782-31.782V95.347C111.239 77.804 97 63.565 79.456 63.565zm0 63.565H47.674V95.347h31.782v31.783zm127.13 95.347V15.891C206.586 7.119 199.435 0 190.695 0c-8.772 0-15.891 7.119-15.891 15.891v206.586c-17.544 0-31.782 14.239-31.782 31.782v31.782c0 17.544 14.239 31.782 31.782 31.782v47.674c0 8.74 7.119 15.891 15.891 15.891 8.74 0 15.891-7.151 15.891-15.891v-47.674c17.544 0 31.782-14.239 31.782-31.782V254.26c.001-17.544-14.238-31.783-31.782-31.783zm0 63.565h-31.782V254.26h31.782v31.782zm127.13-158.912V15.891C333.716 7.119 326.565 0 317.825 0s-15.891 7.119-15.891 15.891V127.13c-17.544 0-31.782 14.239-31.782 31.782v31.782c0 17.544 14.239 31.782 31.782 31.782v143.021c0 8.74 7.151 15.891 15.891 15.891s15.891-7.151 15.891-15.891v-143.02c17.544 0 31.783-14.239 31.783-31.782v-31.782c0-17.545-14.239-31.783-31.783-31.783zm0 63.565h-31.782v-31.782h31.782v31.782z" fill="#108cd3"/></svg>