<svg xmlns="http://www.w3.org/2000/svg" width="512" height="512"><path d="M388.741 341.333c-47.053 0-85.333 38.28-85.333 85.333S341.687 512 388.741 512s85.333-38.28 85.333-85.333-38.28-85.334-85.333-85.334zm0 151.704c-36.597 0-66.37-29.773-66.37-66.37 0-36.597 29.773-66.37 66.37-66.37 36.597 0 66.37 29.773 66.37 66.37 0 36.597-29.773 66.37-66.37 66.37z" fill="#686868"/><path d="M432.736 390.938a9.484 9.484 0 0 0-13.354 1.215l-40.759 48.912-21.104-21.102c-3.699-3.704-9.708-3.704-13.407 0-3.704 3.701-3.704 9.706 0 13.407l28.444 28.444a9.48 9.48 0 0 0 13.988-.634l47.407-56.889c3.352-4.022 2.808-9.999-1.215-13.353zM388.741 0H47.407a9.482 9.482 0 0 0-9.482 9.482v474.074a9.48 9.48 0 0 0 14.359 8.13l41.942-25.164 32.824 24.62a9.477 9.477 0 0 0 10.567.544l41.942-25.164 32.824 24.62a9.477 9.477 0 0 0 10.567.544l47.407-28.444c4.491-2.694 5.947-8.519 3.252-13.007-2.694-4.488-8.521-5.947-13.007-3.252l-41.942 25.164-32.824-24.62a9.474 9.474 0 0 0-10.567-.544l-41.942 25.164-32.824-24.62a9.474 9.474 0 0 0-10.567-.544L56.889 466.81V18.963h322.37v293.926c0 5.236 4.245 9.481 9.481 9.481s9.482-4.245 9.482-9.481V9.482c0-5.237-4.245-9.482-9.481-9.482z" fill="#686868"/><path d="M142.222 85.333H94.815a9.482 9.482 0 0 0 0 18.964h47.407c5.236 0 9.481-4.245 9.481-9.482s-4.245-9.482-9.481-9.482zm180.148 47.408h-47.407c-5.236 0-9.481 4.245-9.481 9.482s4.245 9.481 9.481 9.481h47.407a9.482 9.482 0 0 0 0-18.963zm0 47.407h-47.407c-5.236 0-9.481 4.245-9.481 9.482s4.245 9.481 9.481 9.481h47.407a9.482 9.482 0 0 0 0-18.963zm0 47.408h-47.407c-5.236 0-9.481 4.245-9.481 9.482s4.245 9.481 9.481 9.481h47.407a9.482 9.482 0 0 0 0-18.963zm0 47.407h-47.407c-5.236 0-9.481 4.245-9.481 9.482s4.245 9.481 9.481 9.481h47.407a9.482 9.482 0 0 0 0-18.963zm0 47.407h-47.407c-5.236 0-9.481 4.245-9.481 9.482s4.245 9.481 9.481 9.481h47.407a9.482 9.482 0 0 0 0-18.963zm-94.814-189.629H94.815a9.482 9.482 0 0 0 0 18.963h132.741c5.236 0 9.482-4.245 9.482-9.481s-4.246-9.482-9.482-9.482zm0 47.407H94.815a9.482 9.482 0 0 0 0 18.963h132.741c5.236 0 9.482-4.245 9.482-9.481s-4.246-9.482-9.482-9.482zm0 47.408H94.815a9.482 9.482 0 0 0 0 18.963h132.741c5.236 0 9.482-4.245 9.482-9.481s-4.246-9.482-9.482-9.482zm0 47.407H94.815a9.482 9.482 0 0 0 0 18.963h132.741c5.236 0 9.482-4.245 9.482-9.481s-4.246-9.482-9.482-9.482zm0 47.407H94.815a9.482 9.482 0 0 0 0 18.963h132.741c5.236 0 9.482-4.245 9.482-9.481s-4.246-9.482-9.482-9.482z" fill="#686868"/></svg>