<svg xmlns="http://www.w3.org/2000/svg" width="512" height="512"><g fill="#686868"><path d="M326.534 225.782a8.352 8.352 0 0 0 8.354-8.354 8.353 8.353 0 0 0-8.354-8.354h-59.847c-4.615 0-8.354 3.739-8.354 8.354s3.739 8.354 8.354 8.354h59.847zM64.375 110.469h262.16a8.353 8.353 0 0 0 8.354-8.354 8.352 8.352 0 0 0-8.354-8.354H64.375a8.353 8.353 0 0 0-8.354 8.354 8.354 8.354 0 0 0 8.354 8.354zm0 76.876h262.16a8.352 8.352 0 0 0 8.354-8.354 8.352 8.352 0 0 0-8.354-8.354H64.375a8.353 8.353 0 0 0-8.354 8.354 8.354 8.354 0 0 0 8.354 8.354zm0 38.437h177.107c4.614 0 8.354-3.739 8.354-8.354s-3.74-8.354-8.354-8.354H64.375c-4.614 0-8.354 3.739-8.354 8.354s3.74 8.354 8.354 8.354zm262.159 137.042h-85.052a8.353 8.353 0 0 0-8.354 8.354 8.353 8.353 0 0 0 8.354 8.354h85.052a8.352 8.352 0 0 0 8.354-8.354 8.353 8.353 0 0 0-8.354-8.354zm0-38.436H169.091a8.353 8.353 0 0 0-8.354 8.354 8.354 8.354 0 0 0 8.354 8.354h157.445a8.353 8.353 0 0 0 8.354-8.354 8.355 8.355 0 0 0-8.356-8.354zm-154.778-68.521a8.353 8.353 0 0 0 8.354 8.354h146.424a8.352 8.352 0 0 0 8.354-8.354 8.352 8.352 0 0 0-8.354-8.354H180.11a8.355 8.355 0 0 0-8.354 8.354zM64.375 417.969h262.16a8.353 8.353 0 0 0 8.354-8.354 8.352 8.352 0 0 0-8.354-8.354H64.375c-4.614 0-8.354 3.739-8.354 8.354s3.74 8.354 8.354 8.354zm0-153.748H156a8.353 8.353 0 0 0 8.354-8.354 8.353 8.353 0 0 0-8.354-8.354H64.375a8.353 8.353 0 0 0-8.354 8.354 8.354 8.354 0 0 0 8.354 8.354z"/><path d="M503.646 1.578H129.449a8.353 8.353 0 0 0-8.354 8.354v16.185H8.354A8.354 8.354 0 0 0 0 34.471v467.596a8.353 8.353 0 0 0 8.354 8.354h374.198a8.352 8.352 0 0 0 8.354-8.354v-16.184h112.74a8.352 8.352 0 0 0 8.354-8.354V9.932a8.352 8.352 0 0 0-8.354-8.354zM374.198 493.714H16.708V42.825h357.49v450.889zm121.094-24.538H390.906V393.43h56.724c4.614 0 8.354-3.739 8.354-8.354s-3.74-8.354-8.354-8.354h-56.724v-21.729h56.724c4.614 0 8.354-3.739 8.354-8.354s-3.74-8.354-8.354-8.354h-56.724v-21.729h56.724c4.614 0 8.354-3.739 8.354-8.354s-3.74-8.354-8.354-8.354h-56.724v-21.737h7.281a8.352 8.352 0 0 0 8.354-8.354 8.353 8.353 0 0 0-8.354-8.354h-7.281v-21.729h56.724a8.353 8.353 0 0 0 8.354-8.354 8.353 8.353 0 0 0-8.354-8.354h-56.724v-21.729h56.724a8.353 8.353 0 0 0 8.354-8.354 8.353 8.353 0 0 0-8.354-8.354h-56.724V162.8h56.724a8.353 8.353 0 0 0 8.354-8.354 8.353 8.353 0 0 0-8.354-8.354h-56.724v-21.729h56.724a8.353 8.353 0 0 0 8.354-8.354 8.353 8.353 0 0 0-8.354-8.354h-56.724V85.93h56.724a8.353 8.353 0 0 0 8.354-8.354 8.353 8.353 0 0 0-8.354-8.354h-56.724V34.471a8.352 8.352 0 0 0-8.354-8.354H137.803v-7.831h357.489v450.89z"/><path d="M64.375 456.406h163.956c4.614 0 8.354-3.739 8.354-8.354s-3.74-8.354-8.354-8.354H64.375a8.354 8.354 0 0 0 0 16.708zm0-115.31h74.03a8.354 8.354 0 0 0 8.354-8.354 8.353 8.353 0 0 0-8.354-8.354h-74.03a8.354 8.354 0 0 0 0 16.708zm0 38.435h147.092a8.353 8.353 0 0 0 8.354-8.354 8.353 8.353 0 0 0-8.354-8.354H64.375a8.353 8.353 0 0 0-8.354 8.354 8.353 8.353 0 0 0 8.354 8.354z"/></g></svg>